# xmcd
#
# Track frame offsets: 
#        150
#        23384
#        35824
#        56291
#        67879
#        68454
#        85062
#        87049
#        95401
#        116210
#        116511
#        133715
#        148244
#        157808
#        158109
#        171923
#        175404
#        188105
#        196199
#        224645
#        238456
#        241016
#        258649
#        259959
#
# Disc length: 3686 seconds
#
# Revision: 0
# Processed by: cddbd v1.5.1PL2 Copyright (c) Steve Scherf et al.
# Submitted via: ExactAudioCopy v0.95b3
#
DISCID=510e6418
DTITLE=Old Crow Medicine Show - Greetings From WAWA
DYEAR=1900
DGENRE=Bluegrass
TTITLE0=Greetings From WAWA - Reuben's Train
TTITLE1=Kitty Clyde
TTITLE2=Gospel Plow
TTITLE3=Beech Creek Dirge
TTITLE4=We Followed Girls
TTITLE5=Elkhorn Ridge
TTITLE6=Daisy On The Porch
TTITLE7=Interlude
TTITLE8=Harley In The Ballroom
TTITLE9=A Little Number
TTITLE10=Old Red
TTITLE11=Oh My Love
TTITLE12=When Dey Wud No Crawfish
TTITLE13=Wow The Is Diverse
TTITLE14=Blackeyed Susie
TTITLE15=Waiting For All
TTITLE16=Greasy Coat
TTITLE17=Granny Does Your Dog Bite
TTITLE18=Pour It On, Dock
TTITLE19=Worried Mary
TTITLE20=Goodbye Sweet Daisy
TTITLE21=Oh My Little Darling
TTITLE22=Six Rainbows Over WAWA
TTITLE23=Cumberland Gap
EXTD=
EXTT0=
EXTT1=
EXTT2=
EXTT3=
EXTT4=
EXTT5=
EXTT6=
EXTT7=
EXTT8=
EXTT9=
EXTT10=
EXTT11=
EXTT12=
EXTT13=
EXTT14=
EXTT15=
EXTT16=
EXTT17=
EXTT18=
EXTT19=
EXTT20=
EXTT21=
EXTT22=
EXTT23=
PLAYORDER=
